# xmcd
#
# Track frame offsets: 
#        150
#        19025
#        44312
#        67832
#        88997
#        107916
#
# Disc length: 2121 seconds
#
# Revision: 1
# Processed by: cddbd v1.5.2PL0 Copyright (c) Steve Scherf et al.
# Submitted via: ExactAudioCopy v0.99pb5
#
DISCID=47084706
DTITLE=John McLaughlin - Devotion
DYEAR=1970
DGENRE=Jazz
TTITLE0=01 - Marbles
TTITLE1=Siren
TTITLE2=Don't Let The Dragon Eat Your Mother
TTITLE3=Purpose Of When
TTITLE4=Dragon Song
TTITLE5=Devotion
EXTD=
EXTT0=
EXTT1=
EXTT2=
EXTT3=
EXTT4=
EXTT5=
PLAYORDER=
